HIERARCHY
ROOT Hips
{
    OFFSET 0.000000 0.000000 0.000000
    CHANNELS 6 Xposition Yposition Zposition Zrotation Xrotation Yrotation
    JOINT Spine
    {
        OFFSET -0.000000 7.246840 0.000000
        CHANNELS 3 Zrotation Xrotation Yrotation
        JOINT Spine1
        {
            OFFSET -0.000000 20.289354 0.000000
            CHANNELS 3 Zrotation Xrotation Yrotation
            JOINT Neck
            {
                OFFSET -0.000000 20.206032 1.836912
                CHANNELS 3 Zrotation Xrotation Yrotation
                JOINT Head
                {
                    OFFSET -0.000000 12.372654 -1.767522
                    CHANNELS 3 Zrotation Xrotation Yrotation
                    End Site
                    {
                        OFFSET -0.000000 22.094025 0.000000
                    }
                }
            }
            JOINT LeftShoulder
            {
                OFFSET 3.465871 17.201674 -0.568930
                CHANNELS 3 Zrotation Xrotation Yrotation
                JOINT LeftArm
                {
                    OFFSET 14.070313 0.000000 0.000000
                    CHANNELS 3 Zrotation Xrotation Yrotation
                    JOINT LeftForeArm
                    {
                        OFFSET 26.549477 0.000000 0.000000
                        CHANNELS 3 Zrotation Xrotation Yrotation
                        JOINT LeftHand
                        {
                            OFFSET 18.880413 0.000000 0.000000
                            CHANNELS 3 Zrotation Xrotation Yrotation
                            End Site
                            {
                                OFFSET 13.256415 0.000000 0.000000
                            }
                        }
                    }
                }
            }
            JOINT RightShoulder
            {
                OFFSET -3.526370 17.201674 -0.568930
                CHANNELS 3 Zrotation Xrotation Yrotation
                JOINT RightArm
                {
                    OFFSET -14.070313 0.000000 0.000000
                    CHANNELS 3 Zrotation Xrotation Yrotation
                    JOINT RightForeArm
                    {
                        OFFSET -26.549477 0.000000 0.000000
                        CHANNELS 3 Zrotation Xrotation Yrotation
                        JOINT RightHand
                        {
                            OFFSET -18.880413 0.000000 0.000000
                            CHANNELS 3 Zrotation Xrotation Yrotation
                            End Site
                            {
                                OFFSET -13.256415 0.000000 0.000000
                            }
                        }
                    }
                }
            }
        }
    }
    JOINT LeftUpLeg
    {
        OFFSET 8.837609 0.000000 0.000000
        CHANNELS 3 Zrotation Xrotation Yrotation
        JOINT LeftLeg
        {
            OFFSET -0.000000 -41.345005 0.000000
            CHANNELS 3 Zrotation Xrotation Yrotation
            JOINT LeftFoot
            {
                OFFSET -0.000000 -35.500874 0.000000
                CHANNELS 3 Zrotation Xrotation Yrotation
                JOINT LeftToeBase
                {
                    OFFSET -0.000000 -5.744446 13.256415
                    CHANNELS 3 Zrotation Xrotation Yrotation
                    End Site
                    {
                        OFFSET -0.000000 0.000000 3.535044
                    }
                }
            }
        }
    }
    JOINT RightUpLeg
    {
        OFFSET -8.837609 0.000000 0.000000
        CHANNELS 3 Zrotation Xrotation Yrotation
        JOINT RightLeg
        {
            OFFSET -0.000000 -41.345005 0.000000
            CHANNELS 3 Zrotation Xrotation Yrotation
            JOINT RightFoot
            {
                OFFSET -0.000000 -35.500874 0.000000
                CHANNELS 3 Zrotation Xrotation Yrotation
                JOINT RightToeBase
                {
                    OFFSET -0.000000 -5.744446 13.256415
                    CHANNELS 3 Zrotation Xrotation Yrotation
                    End Site
                    {
                        OFFSET -0.000000 0.000000 3.535044
                    }
                }
            }
        }
    }
}
MOTION
Frames:    14
Frame Time:    0.010000
73.021767    84.693672    -2.972208    11.721216    -5.499288    -153.582169    -4.712188    -17.760160    -2.841100    6.234530    18.700544    -3.132077    1.735839    30.076778    3.732759    -3.875570    1.926955    3.634314    4.532952    7.296766    9.397273    175.463684    84.974373    89.792877    60.154491    43.645775    -55.745049    -161.847351    41.409382    6.037193    -6.347900    7.941134    9.034869    117.250076    72.405289    -30.761816    -11.288365    3.687704    34.661697    -0.770393    7.011014    28.645285    0.710178    -7.560282    -0.467929    -3.017431    5.267360    -7.363017    3.391131    1.725020    -19.336105    1.942500    -0.197470    -2.722337    6.838344    -33.463997    18.933634    -6.242155    31.790480    10.755456    21.569380    0.969220    7.861444    -1.191153    -10.270204    2.418649    
72.901245    84.693100    -3.174527    11.914390    -5.284560    -152.103561    -4.614341    -17.657827    -2.904438    6.195848    18.798405    -3.213995    1.814039    29.829500    3.571150    -3.645695    1.714926    3.494359    4.526807    7.416148    9.328824    -176.257324    84.577461    81.497490    61.458603    44.283546    -57.089729    -162.644821    40.754082    6.294704    -6.355630    8.001163    8.913307    116.663086    72.198631    -30.302681    -11.122438    3.731843    35.179897    -0.231218    7.195297    28.348106    0.821359    -7.395464    -1.069915    -3.017165    5.156938    -7.837602    3.246232    1.655189    -19.580187    1.852815    -0.432310    -2.600339    7.121356    -33.733570    19.092724    -5.714183    30.106968    10.470556    22.022892    1.657288    8.051325    -1.273172    -10.203469    2.582795    
72.461739    84.687614    -3.370824    12.416796    -5.610026    -150.657883    -3.538745    -18.932310    -2.886497    5.088992    19.623007    -3.176957    1.933337    29.564434    3.399876    -3.523882    1.554361    3.337379    4.550544    7.500942    9.330486    -171.500931    84.142136    76.850609    64.702850    45.577229    -59.686844    -163.612900    42.353432    6.540971    -6.415080    8.135309    8.888686    117.178513    72.623207    -30.624266    -13.355939    10.500992    34.473049    -3.931208    13.656151    26.808680    0.595011    -7.612976    -2.086914    -2.725304    4.723161    -7.665770    3.066839    1.643560    -20.043123    1.870159    -0.584658    -2.627091    7.004015    -34.445114    19.088741    -4.760590    28.153231    10.249611    22.769087    2.791290    8.422127    -0.443631    -10.493060    0.903647    
72.370186    84.682938    -3.582355    12.607014    -5.376815    -149.233994    -3.557941    -18.792446    -2.955604    5.168797    19.671957    -3.263457    2.011220    29.419460    3.208204    -3.351378    1.232950    3.157934    4.540468    7.555766    9.294045    -168.991547    83.668091    74.474823    67.480759    46.951206    -61.707508    -164.309402    43.729378    6.814995    -6.411113    8.126681    8.847622    117.497910    72.628960    -30.975925    -13.349396    10.307663    34.867275    -2.995908    13.740489    26.386894    0.789283    -7.485230    -2.482053    -2.782581    4.745861    -8.730150    2.859493    1.488611    -19.872761    1.889433    -0.744889    -2.656738    7.358439    -34.669376    19.105761    -4.215201    26.344660    9.682709    24.147938    4.199258    8.664976    0.067060    -10.496501    -0.136584    
72.256012    84.668053    -3.794130    12.807440    -5.139522    -147.875885    -3.551294    -18.567877    -3.007389    5.269953    19.557619    -3.335637    2.114273    29.236671    3.068808    -3.190217    1.087789    3.039464    4.515722    7.707192    9.413427    -165.200470    83.352295    70.784294    66.105911    46.447334    -61.269806    -165.105347    40.801994    6.610820    -6.436598    8.321939    8.653004    117.446762    72.901344    -31.016483    -13.098819    9.750426    35.156525    -1.972113    13.378650    26.561050    0.976857    -7.353480    -2.862540    -2.825298    4.686956    -9.005807    2.711479    1.282067    -20.331856    1.781031    -1.355890    -2.513688    7.738531    -34.860947    18.914915    -3.716237    24.440195    9.180540    25.150471    6.101895    8.594914    -0.427464    -10.162827    0.866798    
72.141853    84.642860    -3.948061    12.907484    -4.835045    -146.529922    -3.524069    -18.061806    -3.034349    5.323662    19.295506    -3.379755    2.704677    29.312532    2.799768    -3.825646    0.509443    2.732948    4.491806    7.866405    9.566569    -165.182785    83.111259    70.891342    76.276634    48.962502    -69.453468    -166.855133    48.778469    7.198677    -6.433455    8.391282    8.594731    117.664200    72.934441    -31.377827    -12.802500    8.772493    35.630592    -0.544759    12.706606    26.445181    1.070103    -7.214325    -3.187669    -2.818628    4.713931    -8.958955    2.809969    1.184362    -21.308571    1.696107    -1.634823    -2.397958    8.002736    -34.996784    18.663162    -3.068106    22.552471    8.534715    25.941263    8.376581    8.599595    -0.589310    -10.356901    1.198129    
70.977066    83.011101    -4.575163    3.298852    -2.619403    -144.682343    -10.274631    -10.321534    -3.305742    5.188086    19.074987    -3.247536    2.413129    28.921885    2.597657    -2.892761    0.410444    2.602045    4.585070    7.963235    9.426140    -168.649582    82.961624    74.464699    83.739410    50.134087    -74.788971    -168.266586    53.913025    7.708189    -6.386922    8.335356    8.511020    115.609474    71.956322    -29.628424    -12.061454    9.086749    36.451622    0.272870    13.061427    26.037975    -6.598252    1.584986    -5.833564    -2.014570    3.258186    -8.349096    2.972737    1.160742    -21.345686    1.692662    -1.841014    -2.396139    -0.936967    -28.510666    15.717992    -1.367153    22.429466    10.703617    28.631857    -2.238739    13.853351    2.065712    -2.388211    -3.802621    
70.797485    82.956734    -4.788203    3.444678    -2.524126    -143.435593    -10.105937    -10.472000    -3.175282    5.190387    19.591433    -3.143458    2.980714    28.799511    2.196898    -3.254631    -0.104343    2.186852    4.665245    7.933454    9.114287    -167.292740    82.813667    73.195343    87.675125    50.534348    -78.050224    -169.381805    55.728863    7.938118    -6.326258    8.300137    8.364196    116.162956    72.159485    -30.210640    -12.001861    8.171162    36.725597    1.435278    12.428759    25.774923    -6.397603    1.819592    -6.316069    -2.020947    3.204016    -8.638133    3.029198    1.037892    -21.588583    2.059138    -1.453166    -2.907859    -0.500065    -28.585110    15.442994    -0.682120    20.417435    10.066335    29.408388    0.179678    14.223479    2.076814    -2.778473    -3.840062    
70.648323    82.910194    -5.036786    3.583907    -2.478059    -142.076874    -10.244785    -10.383049    -3.291695    5.528038    19.628372    -3.315379    2.890598    28.691484    2.082627    -3.073003    -0.389138    2.072233    4.564178    8.133762    9.383840    -169.600555    82.785446    75.610443    91.794624    50.816242    -81.354256    -170.482819    57.798916    8.211021    -6.556756    8.241482    8.625443    117.727730    72.500587    -31.571182    -12.095271    7.531097    36.721333    2.562471    12.071916    25.438082    -6.142975    1.967941    -6.732390    -2.117494    3.295920    -9.479905    3.214240    0.674726    -21.399757    1.952863    -1.703563    -2.762066    -0.129526    -28.552118    14.927866    -0.006202    18.151453    9.356700    30.333715    2.624911    14.656894    2.042703    -3.281949    -3.798935    
70.457443    82.846260    -5.264042    3.631849    -2.397963    -140.869614    -10.253636    -10.299002    -3.229691    5.640905    19.894474    -3.293234    2.847344    28.367483    1.830800    -2.704792    -0.667221    1.842741    4.531494    8.097763    9.501192    -172.052338    82.743523    78.201035    95.150261    50.839291    -84.085281    -171.474701    59.166656    8.379805    -6.599690    8.170470    8.536261    117.956558    72.485489    -31.856192    -12.020876    6.948940    37.145416    4.004682    11.820401    24.872732    -6.001364    2.241077    -7.261308    -2.161356    3.305974    -10.138986    3.854963    0.449130    -21.603031    1.355431    -2.627227    -1.928239    0.239940    -28.541040    14.791915    0.715938    16.261930    8.783580    33.204517    5.991033    13.878054    1.473377    -5.741852    -2.821734    
70.251114    82.768234    -5.495684    3.639188    -2.333864    -139.667877    -10.145098    -10.326905    -3.188973    5.404847    20.242605    -3.235329    2.686186    28.302219    1.697870    -2.053876    -1.097691    1.772559    4.650732    8.120307    9.471601    -171.278030    82.732315    77.569649    -63.333351    -50.388004    -79.441109    -1.070951    -75.020981    -162.878662    -6.421840    8.330897    8.646190    117.253754    72.510643    -31.268253    -11.937474    6.578773    37.477001    4.989031    11.662011    24.505512    -5.894554    2.517189    -7.804004    -2.219438    3.328197    -10.446465    3.968040    0.257695    -21.734659    1.085208    -3.573238    -1.553141    0.552025    -28.515911    14.782950    1.475389    14.463215    8.226112    34.394981    7.797210    13.287469    1.334842    -6.466491    -2.579409    
70.041763    82.685493    -5.730284    3.634513    -2.288785    -138.499420    -10.201914    -10.295469    -3.138716    5.478688    20.490683    -3.208191    2.645167    27.914471    1.521886    -1.672011    -1.039784    1.632982    4.657155    8.105668    9.456040    -172.576813    82.767517    78.960106    -57.119209    -49.312294    -74.575844    5.377026    -78.969810    -156.696091    -6.406922    8.621522    8.546322    116.253159    73.032997    -30.196102    -11.204961    6.296427    37.370808    4.776390    11.079688    24.491072    -5.782549    2.753913    -8.378193    -2.309763    3.410107    -10.700920    4.121987    0.018838    -21.888512    1.063753    -3.896046    -1.525597    0.801836    -28.411871    14.575310    2.182657    12.533843    7.790689    34.890121    9.031384    13.039067    1.566428    -6.460305    -3.026548    
69.813957    82.594772    -5.979537    3.686344    -2.248375    -137.367447    -10.271255    -10.323100    -3.090449    5.728020    20.733452    -3.208836    2.387130    27.733162    1.322821    -1.214857    -1.256711    1.459055    4.448200    8.025887    9.470829    -175.600494    82.765511    82.203003    -51.513123    -48.007519    -70.484657    17.184822    -82.449188    -145.169418    -6.658395    8.162323    8.772261    117.655853    72.583740    -31.496801    -10.807182    5.903093    37.526634    4.723778    10.558047    24.385464    -5.641071    2.935097    -8.903110    -2.376756    3.573458    -11.078359    4.391098    -0.484379    -21.892687    1.175509    -3.736931    -1.684138    1.125023    -28.285681    14.232272    2.739989    10.565417    7.318081    35.571640    10.816803    12.406355    1.437979    -8.281131    -2.843412    
69.367859    82.429466    -6.123637    3.218060    -2.233304    -136.480896    -10.085248    -10.110951    -2.868085    5.141521    20.988554    -2.926625    2.572577    27.289433    1.071312    -1.073788    -0.950203    1.230989    4.445907    7.934841    9.429528    -176.673431    82.696709    83.416679    -46.566383    -46.478943    -66.825287    40.016579    -84.872490    -122.603043    -6.659792    7.935184    8.846672    117.900299    72.375824    -31.760895    -10.116489    5.724513    37.639149    4.445501    10.095058    24.257641    -6.188495    3.568791    -9.489478    -2.174764    3.614265    -11.068906    3.308742    -0.740527    -21.188095    2.581753    -2.907279    -3.678832    0.825034    -27.813578    13.720078    3.441059    8.696362    6.994667    33.350021    9.860460    13.494644    2.169636    -5.494723    -4.141982    
